<?xml version="1.0" encoding="utf-8"?>
<!-- Generator: Adobe Illustrator 25.4.1, SVG Export Plug-In . SVG Version: 6.00 Build 0)  -->
<svg version="1.1" id="Layer_1" xmlns="http://www.w3.org/2000/svg" xmlns:xlink="http://www.w3.org/1999/xlink" x="0px" y="0px"
	 viewBox="0 0 936.8 400.2" style="enable-background:new 0 0 936.8 400.2;" xml:space="preserve">
<style type="text/css">
	.st0{opacity:0.57;fill-rule:evenodd;clip-rule:evenodd;fill:#FFFFFF;}
	.st1{fill-rule:evenodd;clip-rule:evenodd;fill:#FFFFFF;}
	.st2{fill:#FFFFFF;}
	.st3{opacity:0.6;fill:#FFFFFF;}
</style>
<g>
	<path class="st0" d="M302.2,58.1L264,46.5C163.7,71.8,105,121.3,75.7,173.9c-47,84.2-19,176.4,35.7,192.2
		c23.9,6.9,42.7,4.1,57.1-2.7c27.4-13,38.7-40.4,38.7-40.4s-12.8,26-40.3,36.6c-13.8,5.3-31.3,6.7-52.9-1.3
		c-55.7-20.6-71-132.7,13.7-208.8c34.6-31.1,85.8-55.7,157.6-66.2L302.2,58.1L302.2,58.1z"/>
	<path class="st1" d="M181.8,21.6c-41,20-72.7,44.7-96.6,71.5c-98.4,110.6-64.3,258.8,9.6,280.6c27.8,8.2,49.7,5,66.5-2.9
		c26.1-12.2,39.9-35.7,44.1-44c1.2-2.3,1.8-3.8,1.8-3.8s-10.7,21.3-33.4,29.8c-11.3,4.3-25.6,5.2-43.2-1.5
		c-38.8-14.7-50.6-80.5-8-135.1c22.7-29.1,60.8-54.5,118.4-68.1l31.9-47c-89.1,19.4-142.1,59-169.4,101.5
		C59.6,271,81.2,346.4,128,359.4c19.9,5.6,35.5,3.1,47.5-2.7c4.9-2.4,9.2-5.3,12.8-8.4c-7.3,7.1-16.8,14.1-28.6,18.8
		c-16.2,6.4-36.9,8.1-62.4-1.1C31.8,342.2,9.9,206.3,105,111.9c30.9-30.7,74.3-56.8,132.6-73.3L181.8,21.6L181.8,21.6z"/>
	<polygon class="st2" points="196.7,276.6 238.6,276.6 234.9,296.1 170.6,296.1 190.3,197.9 212.6,197.9 196.7,276.6 	"/>
	<path class="st2" d="M438.9,246.6h19.2l-7.6,38.2c-5.7,3.9-12,7.1-18.9,9.4c-6.9,2.3-13.7,3.5-20.4,3.5c-9.1,0-17.2-2-24.5-6
		c-7.3-4-12.9-9.5-16.9-16.6c-4-7-6-14.9-6-23.7c0-10.1,2.6-19.4,7.9-27.8c5.3-8.4,12.4-15.1,21.5-19.9c9-4.9,18.9-7.3,29.5-7.3
		c7.3,0,14.3,1.3,21.1,3.9c6.7,2.6,12.4,6.2,17,10.7l-14.2,15.9c-3.2-3.5-7.1-6.2-11.7-8.1c-4.6-2-9.3-2.9-14.1-2.9
		c-6.1,0-11.7,1.5-17,4.6c-5.2,3-9.4,7.2-12.6,12.4c-3.1,5.2-4.7,10.9-4.7,17.2c0,5.3,1.2,10.2,3.6,14.5c2.4,4.4,5.8,7.8,10,10.2
		c4.3,2.5,9.1,3.7,14.4,3.7c5.8,0,12.2-1.7,19.1-5.2L438.9,246.6L438.9,246.6z"/>
	<polygon class="st2" points="508.6,197.9 489,296.1 466.6,296.1 486.3,197.9 508.6,197.9 	"/>
	<path class="st2" d="M558.9,196.1c6.7,0,13.3,1,19.7,2.9c6.4,2,11.9,4.6,16.6,7.9l-10.4,18.4c-4.8-3.1-9.9-5.5-15.3-7.4
		c-5.4-1.8-10.2-2.7-14.2-2.7c-4,0-7.2,0.8-9.7,2.4c-2.4,1.6-3.6,3.8-3.6,6.6c0,3.2,1.5,5.6,4.4,7.4c2.9,1.7,7.6,3.6,13.8,5.5
		c6,1.9,10.9,3.7,14.8,5.5c3.9,1.8,7.2,4.4,10,7.9c2.8,3.5,4.1,8,4.1,13.5c0,7-1.8,13.1-5.5,18.1c-3.7,5.1-8.7,8.9-15,11.5
		c-6.3,2.6-13.4,3.9-21.1,3.9c-7.9,0-15.6-1.4-23-4.3c-7.4-2.9-13.7-6.7-18.8-11.6l10.7-18.1c4.5,4.5,9.8,8.1,16,10.8
		c6.2,2.7,11.9,4.1,17.3,4.1c4.9,0,8.7-0.9,11.4-2.8c2.8-1.9,4.1-4.5,4.1-7.9c0-2.2-0.8-4.1-2.4-5.7c-1.6-1.5-3.6-2.8-6-3.7
		c-2.4-0.9-5.8-2.1-10.1-3.4c-6.3-1.9-11.4-3.7-15.4-5.5c-4-1.8-7.3-4.6-10-8.3c-2.7-3.7-3.8-8.6-3.3-14.6c0.3-6.1,2.2-11.4,5.8-16
		c3.6-4.6,8.4-8.1,14.5-10.7C544.2,197.3,551.1,196.1,558.9,196.1L558.9,196.1z"/>
	<polygon class="st2" points="690.8,197.9 687.1,216.7 657.1,216.7 641,296.1 618.8,296.1 634.8,216.7 604.9,216.7 608.5,197.9 
		690.8,197.9 	"/>
	<polygon class="st2" points="724.9,197.9 705.3,296.1 682.9,296.1 702.6,197.9 724.9,197.9 	"/>
	<path class="st2" d="M787.8,196.3c7.1,0,14,1.5,20.6,4.4c6.6,2.9,12.1,6.9,16.5,12l-14.5,15.9c-3-4-6.6-7.2-10.9-9.5
		c-4.3-2.3-8.7-3.4-13.3-3.4c-5.9,0-11.4,1.5-16.5,4.5c-5.1,3-9.1,7.1-12.1,12.2c-3,5.1-4.5,10.8-4.5,17c0,5.2,1.1,10,3.4,14.2
		c2.3,4.3,5.5,7.6,9.5,10.1c4.1,2.5,8.7,3.7,13.8,3.7c4.4,0,9-1.1,13.8-3.2c4.8-2.1,9.1-4.9,13.1-8.5l11.7,14.2
		c-5.8,5.4-12.4,9.7-19.8,12.9c-7.4,3.2-14.6,4.8-21.8,4.8c-9,0-17-2-24.1-6c-7.1-4-12.6-9.6-16.6-16.6c-4-7.1-6-15-6-23.8
		c0-10.1,2.6-19.4,7.8-27.8c5.2-8.4,12.2-15,21-19.9C767.7,198.7,777.3,196.3,787.8,196.3L787.8,196.3z"/>
	<path class="st2" d="M876.2,196.1c6.7,0,13.3,1,19.7,2.9c6.4,2,11.9,4.6,16.6,7.9L902,225.2c-4.8-3.1-9.9-5.5-15.3-7.4
		c-5.4-1.8-10.2-2.7-14.2-2.7c-4,0-7.3,0.8-9.7,2.4c-2.4,1.6-3.6,3.8-3.6,6.6c0,3.2,1.5,5.6,4.4,7.4c3,1.7,7.6,3.6,13.8,5.5
		c6,1.9,10.9,3.7,14.8,5.5c3.9,1.8,7.2,4.4,10,7.9c2.8,3.5,4.1,8,4.1,13.5c0,7-1.8,13.1-5.5,18.1c-3.7,5.1-8.7,8.9-15,11.5
		c-6.3,2.6-13.4,3.9-21.1,3.9c-8,0-15.6-1.4-23-4.3c-7.4-2.9-13.7-6.7-18.8-11.6l10.7-18.1c4.5,4.5,9.8,8.1,16,10.8
		c6.2,2.7,11.9,4.1,17.3,4.1c4.9,0,8.7-0.9,11.4-2.8c2.8-1.9,4.1-4.5,4.1-7.9c0-2.2-0.8-4.1-2.4-5.7c-1.6-1.5-3.6-2.8-6-3.7
		c-2.4-0.9-5.8-2.1-10.1-3.4c-6.3-1.9-11.4-3.7-15.4-5.5c-4-1.8-7.3-4.6-10-8.3c-2.7-3.7-3.8-8.6-3.3-14.6c0.3-6.1,2.2-11.4,5.7-16
		c3.6-4.6,8.4-8.1,14.5-10.7C861.5,197.3,868.4,196.1,876.2,196.1L876.2,196.1z"/>
	<path class="st3" d="M283.4,319.1c1.6,0,3.1,0.3,4.6,1c1.5,0.7,2.7,1.6,3.6,2.7l-3.6,3.9c-0.6-0.9-1.4-1.6-2.2-2.1
		c-0.9-0.5-1.8-0.8-2.7-0.8c-1.2,0-2.2,0.3-3.2,0.9c-1,0.6-1.8,1.4-2.4,2.4c-0.6,1-0.9,2.2-0.9,3.4c0,1.1,0.2,2,0.7,2.9
		c0.4,0.8,1.1,1.5,1.9,2c0.8,0.5,1.7,0.7,2.7,0.7c0.9,0,1.8-0.2,2.8-0.7c1-0.4,1.9-1.1,2.7-1.8l2.9,3.5c-1.3,1.2-2.7,2.2-4.4,2.9
		c-1.7,0.7-3.3,1.1-4.8,1.1c-2,0-3.7-0.4-5.2-1.3c-1.5-0.9-2.7-2.1-3.6-3.6c-0.8-1.5-1.3-3.3-1.3-5.2c0-2.2,0.6-4.2,1.7-6.1
		c1.1-1.8,2.6-3.3,4.6-4.3C279,319.6,281.1,319.1,283.4,319.1L283.4,319.1z"/>
	<path class="st3" d="M329.2,319.1c2,0,3.8,0.4,5.4,1.3c1.6,0.9,2.8,2,3.7,3.6c0.9,1.5,1.3,3.2,1.3,5.1c0,2.2-0.6,4.2-1.7,6.1
		c-1.1,1.8-2.7,3.3-4.6,4.4c-1.9,1.1-4.1,1.6-6.4,1.6c-2,0-3.8-0.4-5.4-1.3c-1.6-0.9-2.8-2.1-3.7-3.6c-0.9-1.5-1.3-3.3-1.3-5.2
		c0-2.2,0.6-4.2,1.7-6.1c1.1-1.8,2.7-3.3,4.6-4.3C324.8,319.6,326.9,319.1,329.2,319.1L329.2,319.1z M328.8,323.8
		c-1.1,0-2.2,0.3-3.2,0.9c-1,0.6-1.8,1.4-2.4,2.5c-0.6,1.1-0.9,2.2-0.9,3.4c0,1.1,0.2,2,0.7,2.9c0.5,0.9,1.1,1.6,1.9,2.1
		c0.8,0.5,1.7,0.8,2.7,0.8c1.1,0,2.2-0.3,3.2-0.9c1-0.6,1.8-1.5,2.4-2.5c0.6-1.1,0.9-2.2,0.9-3.5c0-1.1-0.2-2-0.7-2.9
		c-0.4-0.9-1.1-1.5-1.9-2C330.6,324.1,329.8,323.8,328.8,323.8L328.8,323.8z"/>
	<polygon class="st3" points="387.2,319.5 393.2,319.5 389.1,340.7 384.2,340.7 386.8,327.1 379.1,338.6 375.5,338.6 372.3,327 
		369.6,340.7 364.7,340.7 368.9,319.5 374.8,319.5 378.6,332.1 387.2,319.5 	"/>
	<path class="st3" d="M431,319.5c2.3,0,4.1,0.5,5.4,1.6c1.3,1,1.9,2.5,1.9,4.4c0,1.9-0.4,3.5-1.2,4.9c-0.8,1.4-2,2.5-3.6,3.3
		c-1.6,0.8-3.4,1.2-5.5,1.2h-3.8l-1.2,5.9h-5.6l4.2-21.3H431L431,319.5z M428.6,330.4c1.3,0,2.4-0.4,3.2-1.1
		c0.8-0.7,1.2-1.7,1.2-2.9c0-0.8-0.3-1.4-0.8-1.9c-0.5-0.4-1.3-0.7-2.2-0.7h-3.5l-1.3,6.5H428.6L428.6,330.4z"/>
	<path class="st3" d="M476.8,340.7l-0.8-3.8h-9.2l-2.1,3.8h-5.7l12.7-21.3h5.7l5.4,21.3H476.8L476.8,340.7z M469.1,332.7h5.9
		l-1.7-7.7L469.1,332.7L469.1,332.7z"/>
	<polygon class="st3" points="527.7,319.5 532.8,319.5 528.6,340.7 523.7,340.7 516.7,328 514.1,340.7 508.9,340.7 513.1,319.5 
		518,319.5 525.1,332.3 527.7,319.5 	"/>
	<polygon class="st3" points="580.1,319.5 570,333.9 568.9,340.7 563.4,340.7 564.4,333.9 559,319.5 564.6,319.5 568.1,328.7 
		574.6,319.5 580.1,319.5 	"/>
	<polygon class="st3" points="653.7,319.5 652.8,324 646.4,324 643.1,340.7 637.5,340.7 640.9,324 634.5,324 635.4,319.5 
		653.7,319.5 	"/>
	<path class="st3" d="M689.3,340.7l-0.8-3.8h-9.2l-2.1,3.8h-5.7l12.7-21.3h5.7l5.4,21.3H689.3L689.3,340.7z M681.6,332.7h5.9
		l-1.7-7.7L681.6,332.7L681.6,332.7z"/>
	<path class="st3" d="M737.6,329.9h4.8l-1.7,8.5c-1.3,0.9-2.7,1.5-4.2,2c-1.6,0.5-3.1,0.8-4.5,0.8c-2,0-3.8-0.4-5.4-1.3
		c-1.6-0.9-2.8-2.1-3.7-3.6c-0.9-1.5-1.3-3.3-1.3-5.2c0-2.2,0.6-4.2,1.7-6c1.2-1.8,2.7-3.3,4.7-4.3c2-1.1,4.1-1.6,6.5-1.6
		c1.6,0,3.1,0.3,4.6,0.9c1.5,0.6,2.8,1.4,3.8,2.3l-3.5,3.9c-0.7-0.7-1.5-1.3-2.5-1.7c-1-0.4-1.9-0.6-2.9-0.6c-1.2,0-2.3,0.3-3.3,0.9
		c-1,0.6-1.8,1.4-2.4,2.5c-0.6,1-0.9,2.2-0.9,3.4c0,1.1,0.2,2,0.7,2.9c0.5,0.9,1.1,1.6,1.9,2.1c0.8,0.5,1.8,0.7,2.8,0.7
		c1.1,0,2.3-0.3,3.7-1L737.6,329.9L737.6,329.9z"/>
	<polygon class="st3" points="774.5,336 783.5,336 782.5,340.7 768,340.7 772.2,319.5 777.8,319.5 774.5,336 	"/>
	<polygon class="st3" points="819.1,319.5 814.9,340.7 809.3,340.7 813.6,319.5 819.1,319.5 	"/>
	<polygon class="st3" points="862,319.5 867.2,319.5 863,340.7 858.1,340.7 851,328 848.5,340.7 843.3,340.7 847.5,319.5 
		852.4,319.5 859.5,332.3 862,319.5 	"/>
	<polygon class="st3" points="911.5,323.9 900.3,323.9 899.5,327.9 909.7,327.9 908.8,332.3 898.6,332.3 897.8,336.3 909.4,336.3 
		908.5,340.7 891.4,340.7 895.6,319.5 912.4,319.5 911.5,323.9 	"/>
	<path class="st2" d="M309.4,196.3c9.2,0,17.4,2,24.7,6c7.3,4,13,9.5,17.1,16.5c4.1,7,6.2,14.9,6.2,23.7c0,10.1-2.6,19.4-7.9,27.9
		c-5.2,8.5-12.3,15.1-21.2,20c-8.9,4.9-18.6,7.3-29.1,7.3c-9.3,0-17.5-2-24.8-6c-7.3-4-13-9.6-17.1-16.6c-4.1-7.1-6.1-15-6.1-23.8
		c0-10.2,2.6-19.5,7.9-27.9c5.2-8.4,12.3-15,21.2-19.8C289.3,198.7,299,196.3,309.4,196.3L309.4,196.3z M307.8,215.7
		c-5.8,0-11.3,1.5-16.5,4.6c-5.2,3-9.4,7.2-12.5,12.4c-3.1,5.2-4.7,10.9-4.7,17.1c0,5.3,1.2,10.2,3.6,14.5c2.4,4.4,5.7,7.8,9.9,10.3
		c4.2,2.5,8.8,3.8,13.8,3.8c5.8,0,11.3-1.5,16.4-4.6c5.1-3,9.2-7.2,12.2-12.5c3-5.3,4.6-11,4.6-17.2c0-5.3-1.2-10.2-3.5-14.5
		c-2.3-4.3-5.5-7.7-9.6-10.2C317.4,216.9,312.8,215.7,307.8,215.7L307.8,215.7z"/>
</g>
</svg>
