<?xml version="1.0" encoding="utf-8"?>
<!-- Generator: Adobe Illustrator 25.2.0, SVG Export Plug-In . SVG Version: 6.00 Build 0)  -->
<svg version="1.1" id="Layer_1" xmlns="http://www.w3.org/2000/svg" xmlns:xlink="http://www.w3.org/1999/xlink" x="0px" y="0px"
	 viewBox="0 0 46.5 46.9" style="enable-background:new 0 0 46.5 46.9;" xml:space="preserve">
<style type="text/css">
	.st0{fill:#8E258C;}
</style>
<g>
	<path class="st0" d="M40.9,28.7c-0.7,6.6-5.3,11.5-11.2,12.1c0,0-3,0.5-6.5,0.5s-6.5-0.5-6.5-0.5c-5.9-0.6-10.5-5.5-11.2-12.1
		c-0.6-5.4,0-10.4,0-10.4c0.7-6.6,5.3-11.5,11.2-12.1c0,0,3-0.5,6.5-0.5s6.5,0.5,6.5,0.5c5.9,0.6,10.5,5.5,11.2,12.1
		C40.9,18.3,41.5,23.3,40.9,28.7z M45.5,18.3c-1-9.6-7-16.1-15.8-17c0,0-3.9-0.5-6.5-0.5s-6.5,0.5-6.5,0.5c-8.8,1-14.8,7.4-15.8,17
		c0,0-0.4,4.8,0,10.4c1,9.6,7,16.1,15.8,17c0,0,3.9,0.5,6.5,0.5s6.5-0.5,6.5-0.5c8.8-1,14.8-7.4,15.8-17C46,23,45.5,18.3,45.5,18.3z
		"/>
	<g>
		<polygon class="st0" points="12.9,20.9 10.4,15.2 18.6,17.2 23.2,12.9 27.8,17.2 35.9,15.2 33.4,20.9 		"/>
		<path class="st0" d="M28.6,27.2h-5.8l-5.8,5h5.7L28.6,27.2L28.6,27.2z"/>
		<path class="st0" d="M33.4,23.1H12.9v5h14.7L33.4,23.1L33.4,23.1z"/>
		<path class="st0" d="M33.3,29.2H20.6l-5.9,5h18.7L33.3,29.2L33.3,29.2z"/>
	</g>
</g>
</svg>
